<svg width="16" height="17" viewBox="0 0 16 17" fill="none" xmlns="http://www.w3.org/2000/svg">
<g clip-path="url(#clip0_6638_2325)">
<path d="M6.25838 8.5C6.25838 7.5341 7.03414 6.75834 8.00005 6.75834C8.96595 6.75834 9.74171 7.5341 9.74171 8.5C9.74171 9.46591 8.96595 10.2417 8.00005 10.2417C7.03414 10.2417 6.25838 9.46591 6.25838 8.5ZM6.71672 8.5C6.71672 9.2091 7.29095 9.78334 8.00005 9.78334C8.70914 9.78334 9.28338 9.2091 9.28338 8.5C9.28338 7.79091 8.70914 7.21667 8.00005 7.21667C7.29095 7.21667 6.71672 7.79091 6.71672 8.5Z" fill="#6B7280" stroke="#6B7280" stroke-width="0.666667"/>
<path d="M14.6504 8.93786L14.6631 8.91923L14.6731 8.89907C14.7951 8.65523 14.7951 8.34477 14.6731 8.10093L14.6631 8.08076L14.6504 8.06214C13.7218 6.70116 12.7766 5.71565 11.6953 5.07285C10.6095 4.42733 9.41068 4.14167 8 4.14167C6.58932 4.14167 5.39046 4.42733 4.30466 5.07285C3.22345 5.71565 2.27816 6.70116 1.34965 8.06214L1.34963 8.06213L1.34765 8.0651C1.17301 8.32706 1.17301 8.67293 1.34765 8.9349L1.34763 8.93491L1.34965 8.93786C2.27816 10.2988 3.22345 11.2844 4.30466 11.9271C5.39046 12.5727 6.58932 12.8583 8 12.8583C9.41068 12.8583 10.6095 12.5727 11.6953 11.9271C12.7766 11.2844 13.7218 10.2988 14.6504 8.93786ZM8 3.68333C9.88299 3.68333 11.2854 4.2006 12.3883 4.96463C13.4973 5.73283 14.3195 6.76148 15.0228 7.81008C15.2955 8.21936 15.3009 8.74951 15.0213 9.19209C14.318 10.228 13.4961 11.2556 12.3878 12.0263C11.2844 12.7937 9.88211 13.3167 8 13.3167C6.11789 13.3167 4.71558 12.7937 3.61219 12.0263C2.50285 11.2549 1.68039 10.226 0.976641 9.18903C0.702075 8.77623 0.702231 8.2229 0.977108 7.81026C1.68036 6.7616 2.50268 5.73287 3.61169 4.96463C4.71463 4.2006 6.11701 3.68333 8 3.68333Z" fill="#6B7280" stroke="#6B7280" stroke-width="0.666667"/>
</g>
<defs>
<clipPath id="clip0_6638_2325">
<rect width="16" height="16" fill="white" transform="translate(0 0.5)"/>
</clipPath>
</defs>
</svg>
